<svg width="240" height="98" viewBox="0 0 240 98" fill="none" xmlns="http://www.w3.org/2000/svg">
<path d="M30.5066 81.3871C26.0829 81.3871 22.0038 80.6204 18.2695 79.0869C14.5926 77.4966 11.3754 75.2815 8.61769 72.4417C5.86003 69.6019 3.73433 66.2509 2.2406 62.3888C0.746867 58.5267 0 54.2954 0 49.6949C0 45.0944 0.746867 40.8915 2.2406 37.0861C3.73433 33.2808 5.8313 29.9866 8.53152 27.2036C11.2892 24.3638 14.5064 22.1771 18.1833 20.6436C21.9177 19.1101 26.0254 18.3434 30.5066 18.3434C35.4474 18.3434 39.8999 19.3089 43.864 21.24C47.8282 23.1711 51.0742 25.8973 53.602 29.4186C56.1874 32.8832 57.7673 36.9725 58.3418 41.6866H47.3111C46.6217 37.0861 44.7545 33.5648 41.7096 31.1225C38.6647 28.6235 34.9591 27.374 30.5928 27.374C26.7436 27.374 23.3827 28.2827 20.5101 30.1002C17.6375 31.9177 15.3969 34.5019 13.7883 37.8529C12.1797 41.147 11.3754 45.066 11.3754 49.6097C11.3754 54.267 12.1797 58.2995 13.7883 61.7073C15.3969 65.0582 17.6663 67.6709 20.5963 69.5451C23.5263 71.4194 26.8872 72.3565 30.679 72.3565C34.9304 72.3565 38.5785 71.1354 41.6235 68.6932C44.6684 66.1942 46.593 62.6728 47.3973 58.1291H58.5141C57.8247 62.7864 56.1874 66.8757 53.602 70.3971C51.0742 73.9184 47.8282 76.6446 43.864 78.5757C39.8999 80.45 35.4474 81.3871 30.5066 81.3871Z" fill="black"/>
<path d="M65.242 80.5352V37.0861H75.8417V47.565H76.1003V80.5352H65.242ZM76.1003 57.8735L74.98 47.565C76.0141 43.8733 77.7664 41.0618 80.2368 39.1308C82.7072 37.1997 85.6659 36.2342 89.113 36.2342C90.3195 36.2342 91.1812 36.3478 91.6983 36.575V46.7131C91.411 46.5995 91.0089 46.5427 90.4918 46.5427C89.9748 46.4859 89.3428 46.4575 88.5959 46.4575C84.402 46.4575 81.2709 47.3662 79.2026 49.1837C77.1344 51.0012 76.1003 53.8978 76.1003 57.8735Z" fill="black"/>
<path d="M116.669 81.3871C112.016 81.3871 107.908 80.4216 104.346 78.4905C100.842 76.5595 98.1126 73.89 96.1593 70.4823C94.206 67.0177 93.2293 63.0704 93.2293 58.6403C93.2293 54.2102 94.206 50.3196 96.1593 46.9686C98.1126 43.6177 100.842 41.0051 104.346 39.1308C107.908 37.1997 112.016 36.2342 116.669 36.2342C121.38 36.2342 125.488 37.1997 128.993 39.1308C132.497 41.0051 135.226 43.6177 137.18 46.9686C139.133 50.3196 140.11 54.2102 140.11 58.6403C140.11 63.0704 139.104 67.0177 137.093 70.4823C135.14 73.89 132.411 76.5595 128.907 78.4905C125.402 80.4216 121.323 81.3871 116.669 81.3871ZM116.669 72.7825C118.967 72.7825 121.036 72.2145 122.874 71.0786C124.713 69.8859 126.149 68.2388 127.183 66.1374C128.217 63.9791 128.734 61.4517 128.734 58.5551C128.734 54.2954 127.585 50.9444 125.287 48.5021C123.046 46.0599 120.174 44.8388 116.669 44.8388C113.165 44.8388 110.264 46.0599 107.966 48.5021C105.667 50.9444 104.518 54.2954 104.518 58.5551C104.518 61.4517 105.036 63.9791 106.07 66.1374C107.161 68.2388 108.598 69.8859 110.378 71.0786C112.217 72.2145 114.314 72.7825 116.669 72.7825Z" fill="black"/>
<path d="M171.45 81.3871C167.256 81.3871 163.838 80.4216 161.195 78.4905C158.61 76.5027 157.001 73.7764 156.369 70.3119L157.231 70.2267V98H146.373V37.0861H156.973V46.8835L156.111 46.7131C156.915 43.4757 158.754 40.9199 161.626 39.0456C164.499 37.1713 168.003 36.2342 172.14 36.2342C176.046 36.2342 179.436 37.1713 182.309 39.0456C185.239 40.8631 187.508 43.4473 189.117 46.7983C190.725 50.1492 191.53 54.0966 191.53 58.6403C191.53 63.2407 190.697 67.2449 189.03 70.6526C187.364 74.0604 185.038 76.7014 182.05 78.5757C179.063 80.45 175.529 81.3871 171.45 81.3871ZM168.693 72.5269C172.197 72.5269 174.984 71.3342 177.052 68.9488C179.12 66.5065 180.154 63.0988 180.154 58.7255C180.154 54.3521 179.091 50.9728 176.966 48.5873C174.897 46.2019 172.111 45.0092 168.606 45.0092C165.159 45.0092 162.373 46.2303 160.247 48.6725C158.122 51.058 157.059 54.4373 157.059 58.8106C157.059 63.184 158.122 66.5633 160.247 68.9488C162.373 71.3342 165.188 72.5269 168.693 72.5269Z" fill="black"/>
<path d="M232.847 81.3871C227.447 81.3871 223.454 80.1376 220.869 77.6386C218.341 75.0827 217.077 71.2774 217.077 66.2225V27.2036L228.021 23.1995V66.4781C228.021 68.5796 228.596 70.1415 229.745 71.1638C230.894 72.1861 232.704 72.6973 235.174 72.6973C236.151 72.6973 237.013 72.6405 237.759 72.5269C238.564 72.3565 239.311 72.1577 240 71.9306V80.2796C239.311 80.6204 238.334 80.876 237.07 81.0463C235.806 81.2735 234.399 81.3871 232.847 81.3871ZM208.632 45.5204V37.0861H240V45.5204H208.632Z" fill="black"/>
<path d="M197.134 30.4129C196.579 29.2491 195.175 28.75 193.997 29.2982C192.82 29.8463 192.315 31.2346 192.87 32.3985C196.502 40.0227 197.884 49.4467 198.078 58.2655C198.271 67.0593 197.281 75.0395 196.324 79.64C196.062 80.9002 196.883 82.132 198.157 82.3911C199.432 82.6502 200.678 81.8388 200.94 80.5786C201.966 75.6465 202.991 67.3174 202.789 58.164C202.588 49.0353 201.164 38.8733 197.134 30.4129Z" fill="#56C250"/>
<path d="M193.538 28.3346C195.254 27.536 197.3 28.263 198.108 29.9589C202.23 38.6104 203.663 48.9413 203.866 58.1408C204.069 67.3762 203.037 75.7853 201.995 80.7932C201.613 82.6295 199.798 83.8114 197.941 83.4341C196.083 83.0565 194.887 81.2618 195.269 79.4257C196.21 74.901 197.192 67.0005 197 58.289C196.808 49.541 195.436 40.285 191.895 32.852C191.088 31.1563 191.823 29.1335 193.538 28.3346ZM196.159 30.8669C195.858 30.2354 195.096 29.9643 194.457 30.2618C193.818 30.5593 193.544 31.3126 193.845 31.9446C197.567 39.7599 198.959 49.3526 199.154 58.2422C199.35 67.1181 198.352 75.1783 197.379 79.8547C197.237 80.5387 197.682 81.2068 198.374 81.3477C199.066 81.4882 199.743 81.048 199.885 80.3642C200.895 75.5079 201.912 67.2582 201.712 58.1869C201.512 49.1292 200.098 39.1361 196.159 30.8669Z" fill="black"/>
<path d="M166.472 17.0804C170.417 13.4201 175.56 12.2168 180.638 14.4021C185.716 16.5875 189.645 21.6955 191.689 27.9328C187.744 31.5928 182.602 32.7964 177.524 30.611C172.446 28.4256 168.516 23.3178 166.472 17.0804Z" fill="#56C250"/>
<path d="M166.472 17.0804C170.417 13.4201 175.56 12.2168 180.638 14.4021C185.716 16.5875 189.645 21.6955 191.689 27.9328L191.316 28.2688C187.423 31.6648 182.443 32.7281 177.524 30.611C172.446 28.4256 168.516 23.3178 166.472 17.0804ZM179.966 15.9277C175.905 14.18 171.806 14.9016 168.434 17.5975C170.455 23.0462 173.96 27.2622 178.196 29.0852C182.256 30.8328 186.355 30.1109 189.727 27.4154C187.706 21.9668 184.202 17.7506 179.966 15.9277Z" fill="black"/>
<path d="M200.814 5.78671C205.416 0.581924 211.356 -1.04203 216.939 0.633774C217.093 8.44879 214.812 16.1249 210.209 21.33C205.606 26.5351 199.666 28.1582 194.083 26.4817C193.929 18.6672 196.211 10.9916 200.814 5.78671Z" fill="#56C250"/>
<path d="M200.814 5.78671C205.416 0.581924 211.356 -1.04203 216.939 0.633774C217.093 8.44879 214.812 16.1249 210.209 21.33L209.774 21.8075C205.236 26.6334 199.491 28.1058 194.083 26.4817C193.934 18.9115 196.071 11.4716 200.389 6.28209L200.814 5.78671ZM215.258 1.92787C210.713 1.00189 205.948 2.50864 202.081 6.88202C198.06 11.4289 195.872 18.1308 195.764 25.1874C200.309 26.1143 205.075 24.609 208.942 20.2352C212.963 15.6881 215.15 8.98528 215.258 1.92787Z" fill="black"/>
</svg>
